<mxfile host="app.diagrams.net" modified="2023-04-26T09:47:02.213Z" agent="Mozilla/5.0 (Windows NT 10.0; Win64; x64) AppleWebKit/537.36 (KHTML, like Gecko) Chrome/112.0.0.0 Safari/537.36" etag="-WEis35BZK4icyd5cAso" version="21.2.1" type="github">
  <diagram name="第 1 页" id="csXQ9SUu8wRRAdoFmpo0">
    <mxGraphModel dx="1270" dy="804" grid="1" gridSize="10" guides="1" tooltips="1" connect="1" arrows="1" fold="1" page="1" pageScale="1" pageWidth="1920" pageHeight="1200" math="0" shadow="0">
      <root>
        <mxCell id="0" />
        <mxCell id="1" parent="0" />
        <mxCell id="G-NonDZyHKJfnCEGAHNG-5" style="edgeStyle=orthogonalEdgeStyle;rounded=0;orthogonalLoop=1;jettySize=auto;html=1;exitX=1;exitY=0.5;exitDx=0;exitDy=0;" edge="1" parent="1" source="G-NonDZyHKJfnCEGAHNG-1" target="G-NonDZyHKJfnCEGAHNG-3">
          <mxGeometry relative="1" as="geometry" />
        </mxCell>
        <mxCell id="G-NonDZyHKJfnCEGAHNG-1" value="" style="rounded=0;whiteSpace=wrap;html=1;" vertex="1" parent="1">
          <mxGeometry x="300" y="210" width="120" height="60" as="geometry" />
        </mxCell>
        <mxCell id="G-NonDZyHKJfnCEGAHNG-4" style="edgeStyle=orthogonalEdgeStyle;rounded=0;orthogonalLoop=1;jettySize=auto;html=1;exitX=1;exitY=0.5;exitDx=0;exitDy=0;entryX=0.5;entryY=1;entryDx=0;entryDy=0;" edge="1" parent="1" source="G-NonDZyHKJfnCEGAHNG-2" target="G-NonDZyHKJfnCEGAHNG-3">
          <mxGeometry relative="1" as="geometry" />
        </mxCell>
        <mxCell id="G-NonDZyHKJfnCEGAHNG-2" value="" style="whiteSpace=wrap;html=1;aspect=fixed;" vertex="1" parent="1">
          <mxGeometry x="320" y="380" width="80" height="80" as="geometry" />
        </mxCell>
        <mxCell id="G-NonDZyHKJfnCEGAHNG-3" value="" style="ellipse;whiteSpace=wrap;html=1;aspect=fixed;" vertex="1" parent="1">
          <mxGeometry x="570" y="290" width="80" height="80" as="geometry" />
        </mxCell>
      </root>
    </mxGraphModel>
  </diagram>
</mxfile>
